<svg width="27" height="27" viewBox="0 0 27 27" fill="none" xmlns="http://www.w3.org/2000/svg">
<path d="M18.9422 5.0625C19.5565 5.06198 20.1647 5.18411 20.7312 5.42172C21.2977 5.65933 21.8111 6.00765 22.2412 6.44625C23.1275 7.34601 23.6243 8.55829 23.6243 9.82125C23.6243 11.0842 23.1275 12.2965 22.2412 13.1962L13.5 22.0472L4.75871 13.1962C3.87242 12.2965 3.37563 11.0842 3.37563 9.82125C3.37563 8.55829 3.87242 7.34601 4.75871 6.44625C5.1891 6.00796 5.70251 5.65983 6.26895 5.42218C6.83539 5.18453 7.4435 5.06214 8.05778 5.06214C8.67205 5.06214 9.28016 5.18453 9.8466 5.42218C10.413 5.65983 10.9264 6.00796 11.3568 6.44625L13.5 8.64L15.6347 6.46312C16.0635 6.0193 16.5774 5.66651 17.1457 5.42585C17.714 5.18519 18.325 5.06161 18.9422 5.0625ZM18.9422 3.375C18.1031 3.37429 17.2724 3.5411 16.4987 3.86564C15.7251 4.19019 15.0239 4.66594 14.4365 5.265L13.5 6.21L12.5634 5.265C11.9753 4.66702 11.274 4.19209 10.5004 3.86791C9.72687 3.54372 8.89652 3.37677 8.05778 3.37677C7.21904 3.37677 6.38869 3.54372 5.61513 3.86791C4.84157 4.19209 4.14029 4.66702 3.55215 5.265C2.35561 6.48306 1.68518 8.12224 1.68518 9.82969C1.68518 11.5371 2.35561 13.1763 3.55215 14.3944L13.5 24.4687L23.4478 14.3944C24.6443 13.1763 25.3147 11.5371 25.3147 9.82969C25.3147 8.12224 24.6443 6.48306 23.4478 5.265C22.8598 4.6667 22.1586 4.19145 21.385 3.86696C20.6114 3.54247 19.781 3.37523 18.9422 3.375Z" fill="black"/>
</svg>
