<svg width="20" height="20" viewBox="0 0 20 20" fill="none" xmlns="http://www.w3.org/2000/svg">
<g clip-path="url(#clip0_1_61)">
<path d="M9.99999 8.33333C11.8409 8.33333 13.3333 6.84095 13.3333 5C13.3333 3.15905 11.8409 1.66666 9.99999 1.66666C8.15904 1.66666 6.66666 3.15905 6.66666 5C6.66666 6.84095 8.15904 8.33333 9.99999 8.33333Z" stroke="#595959" stroke-width="1.5"/>
<path d="M16.665 15C16.6667 14.8633 16.6667 14.7242 16.6667 14.5833C16.6667 12.5125 13.6817 10.8333 9.99999 10.8333C6.31833 10.8333 3.33333 12.5125 3.33333 14.5833C3.33333 16.6542 3.33333 18.3333 9.99999 18.3333C11.8592 18.3333 13.2 18.2025 14.1667 17.9692" stroke="#595959" stroke-width="1.5" stroke-linecap="round"/>
</g>
<defs>
<clipPath id="clip0_1_61">
<rect width="20" height="20" fill="white"/>
</clipPath>
</defs>
</svg>
