<svg width="20" height="20" viewBox="0 0 20 20" fill="none" xmlns="http://www.w3.org/2000/svg">
<g clip-path="url(#clip0_1_171)">
<g clip-path="url(#clip1_1_171)">
<path d="M10 18.3333C13.2217 18.3333 15.8333 15.7217 15.8333 12.5C15.8333 9.27834 13.2217 6.66666 10 6.66666C6.77834 6.66666 4.16667 9.27834 4.16667 12.5C4.16667 15.7217 6.77834 18.3333 10 18.3333Z" stroke="#595959" stroke-width="1.5"/>
<path d="M12.9167 7.5V4.58333C12.9167 4.20031 12.8412 3.82104 12.6947 3.46717C12.5481 3.1133 12.3332 2.79177 12.0624 2.52094C11.7916 2.2501 11.47 2.03526 11.1162 1.88868C10.7623 1.74211 10.383 1.66666 10 1.66666C9.61699 1.66666 9.23772 1.74211 8.88385 1.88868C8.52998 2.03526 8.20845 2.2501 7.93762 2.52094C7.66678 2.79177 7.45194 3.1133 7.30536 3.46717C7.15879 3.82104 7.08334 4.20031 7.08334 4.58333V7.5" stroke="#595959" stroke-width="1.5" stroke-linejoin="round"/>
<path d="M10 10.8333V14.1667" stroke="#595959" stroke-width="1.5" stroke-linecap="round" stroke-linejoin="round"/>
</g>
</g>
<defs>
<clipPath id="clip0_1_171">
<rect width="20" height="20" fill="white"/>
</clipPath>
<clipPath id="clip1_1_171">
<rect width="20" height="20" fill="white"/>
</clipPath>
</defs>
</svg>
