<svg width="20" height="20" viewBox="0 0 20 20" fill="none" xmlns="http://www.w3.org/2000/svg">
<path d="M10.6 1.69167C9.40788 1.60489 8.21106 1.7758 7.09089 2.1928C5.97071 2.60979 4.95346 3.26309 4.10827 4.10827C3.26309 4.95346 2.60979 5.97071 2.1928 7.09089C1.7758 8.21106 1.60489 9.40788 1.69167 10.6C1.99167 15.0083 5.84167 18.3333 10.2583 18.3333H13.3333C13.7917 18.3333 14.1667 17.9583 14.1667 17.5C14.1667 17.0417 13.7917 16.6667 13.3333 16.6667H10.275C7.16667 16.6667 4.31667 14.65 3.54167 11.6417C2.3 6.80833 6.8 2.3 11.6333 3.55C14.65 4.31667 16.6667 7.16667 16.6667 10.275V11.1917C16.6667 11.85 16.075 12.5 15.4167 12.5C14.7583 12.5 14.1667 11.85 14.1667 11.1917V10.15C14.1667 8.05833 12.6833 6.175 10.6167 5.88333C9.95913 5.78556 9.28775 5.84628 8.65843 6.06043C8.0291 6.27458 7.46004 6.63597 6.99862 7.11452C6.53719 7.59306 6.19676 8.1749 6.00567 8.81161C5.81458 9.44832 5.77835 10.1215 5.9 10.775C6.04616 11.5625 6.41635 12.2911 6.9662 12.8735C7.51605 13.4558 8.22221 13.8672 9 14.0583C10.5333 14.4167 11.9917 13.925 12.95 12.95C13.6917 13.9667 15.175 14.5 16.5333 13.9583C17.65 13.5167 18.3333 12.375 18.3333 11.175V10.2667C18.3333 5.84167 15.0083 1.99167 10.6 1.69167ZM10 12.5C8.61667 12.5 7.5 11.3833 7.5 10C7.5 8.61667 8.61667 7.5 10 7.5C11.3833 7.5 12.5 8.61667 12.5 10C12.5 11.3833 11.3833 12.5 10 12.5Z" fill="#595959"/>
</svg>
