<svg width="19" height="16" viewBox="0 0 19 16" fill="none" xmlns="http://www.w3.org/2000/svg">
<path fill-rule="evenodd" clip-rule="evenodd" d="M9.49995 13.2C14.1521 13.2 18.05 11.3536 18.05 8.80002C18.05 6.24642 14.1521 4.40002 9.49995 4.40002C4.8478 4.40002 0.949951 6.24642 0.949951 8.80002C0.949951 11.3536 4.8478 13.2 9.49995 13.2ZM9.49995 6.00002C13.243 6.00002 16.15 7.37762 16.15 8.80002C16.15 10.2224 13.243 11.6 9.49995 11.6C5.75695 11.6 2.84995 10.2224 2.84995 8.80002C2.84995 7.37762 5.75695 6.00002 9.49995 6.00002Z" fill="#595959"/>
<path d="M8.54997 2.8C8.54997 2.58783 8.65006 2.38434 8.82822 2.23431C9.00638 2.08429 9.24801 2 9.49997 2C9.75193 2 9.99356 2.08429 10.1717 2.23431C10.3499 2.38434 10.45 2.58783 10.45 2.8V5.2C10.45 5.41217 10.3499 5.61566 10.1717 5.76569C9.99356 5.91571 9.75193 6 9.49997 6C9.24801 6 9.00638 5.91571 8.82822 5.76569C8.65006 5.61566 8.54997 5.41217 8.54997 5.2V2.8ZM12.369 3.0432C12.4256 2.84134 12.573 2.66588 12.7803 2.55382C12.9875 2.44175 13.2384 2.40185 13.4799 2.44253C13.7214 2.4832 13.9347 2.60128 14.0748 2.77184C14.2149 2.94241 14.2709 3.15214 14.231 3.3568L13.756 5.3568C13.6994 5.55866 13.5519 5.73412 13.3447 5.84618C13.1374 5.95825 12.8866 5.99815 12.6451 5.95747C12.4036 5.9168 12.1902 5.79872 12.0501 5.62816C11.91 5.45759 11.854 5.24786 11.894 5.0432L12.369 3.0432ZM6.63097 3.0432C6.57439 2.84134 6.42692 2.66588 6.21967 2.55382C6.01241 2.44175 5.76158 2.40185 5.52007 2.44253C5.27856 2.4832 5.06524 2.60128 4.92512 2.77184C4.78499 2.94241 4.72901 3.15214 4.76897 3.3568L5.24397 5.3568C5.30055 5.55866 5.44802 5.73412 5.65527 5.84618C5.86252 5.95825 6.11336 5.99815 6.35487 5.95747C6.59638 5.9168 6.8097 5.79872 6.94982 5.62816C7.08995 5.45759 7.14593 5.24786 7.10597 5.0432L6.63097 3.0432ZM2.71412 3.9888C2.6519 3.8955 2.56808 3.81365 2.46763 3.74811C2.36718 3.68257 2.25213 3.63467 2.1293 3.60724C2.00647 3.57981 1.87836 3.57341 1.75254 3.58842C1.62672 3.60343 1.50576 3.63954 1.39681 3.69462C1.28786 3.7497 1.19314 3.82263 1.11826 3.90909C1.04338 3.99554 0.989853 4.09377 0.960856 4.19796C0.931858 4.30214 0.927977 4.41017 0.949442 4.51564C0.970906 4.62112 1.01728 4.72189 1.08582 4.812L2.51082 6.812C2.57386 6.90407 2.65805 6.98463 2.75847 7.04899C2.8589 7.11335 2.97354 7.16022 3.09572 7.18685C3.21789 7.21348 3.34514 7.21935 3.47003 7.20411C3.59493 7.18887 3.71496 7.15283 3.82313 7.09809C3.9313 7.04335 4.02544 6.97101 4.10004 6.8853C4.17464 6.79958 4.22822 6.70221 4.25763 6.59886C4.28705 6.49552 4.29172 6.38827 4.27137 6.28339C4.25102 6.17851 4.20606 6.07809 4.13912 5.988L2.71412 3.9888ZM16.2858 3.9888C16.4155 3.80686 16.6256 3.67574 16.87 3.62428C17.1145 3.57282 17.3732 3.60524 17.5892 3.7144C17.8053 3.82356 17.961 4.00053 18.0221 4.20637C18.0832 4.41221 18.0447 4.63006 17.9151 4.812L16.4901 6.812C16.3603 6.99405 16.15 7.12523 15.9054 7.17669C15.6608 7.22815 15.4019 7.19567 15.1857 7.0864C14.9695 6.97713 14.8138 6.80002 14.7527 6.59403C14.6915 6.38804 14.7301 6.17004 14.8599 5.988L16.2858 3.9888Z" fill="#595959"/>
<path fill-rule="evenodd" clip-rule="evenodd" d="M9.50005 11.2C10.3819 11.2 11.2276 10.905 11.8512 10.3799C12.4747 9.85477 12.825 9.14258 12.825 8.39998C12.825 7.65737 12.4747 6.94518 11.8512 6.42008C11.2276 5.89497 10.3819 5.59998 9.50005 5.59998C8.6182 5.59998 7.77248 5.89497 7.14892 6.42008C6.52536 6.94518 6.17505 7.65737 6.17505 8.39998C6.17505 9.14258 6.52536 9.85477 7.14892 10.3799C7.77248 10.905 8.6182 11.2 9.50005 11.2ZM9.50005 7.19998C9.87798 7.19998 10.2404 7.3264 10.5077 7.55145C10.7749 7.77649 10.925 8.08172 10.925 8.39998C10.925 8.71824 10.7749 9.02346 10.5077 9.2485C10.2404 9.47355 9.87798 9.59998 9.50005 9.59998C9.12212 9.59998 8.75966 9.47355 8.49242 9.2485C8.22518 9.02346 8.07505 8.71824 8.07505 8.39998C8.07505 8.08172 8.22518 7.77649 8.49242 7.55145C8.75966 7.3264 9.12212 7.19998 9.50005 7.19998Z" fill="#595959"/>
</svg>
