<svg width="20" height="18" viewBox="0 0 20 18" fill="none" xmlns="http://www.w3.org/2000/svg">
<path d="M10 10.1809L11.8092 11.2816C11.9659 11.3798 12.1226 11.3719 12.2793 11.2577C12.4361 11.1422 12.4942 10.9884 12.4538 10.7962L11.9749 8.752L13.5674 7.38375C13.7191 7.24869 13.766 7.09269 13.7083 6.91575C13.6505 6.7388 13.5226 6.64131 13.3248 6.62325L11.2274 6.43367L10.4041 4.50425C10.3275 4.32947 10.1928 4.24208 10 4.24208C9.80717 4.24208 9.67247 4.32947 9.59592 4.50425L8.77258 6.43258L6.67525 6.62325C6.47808 6.64131 6.35025 6.7388 6.29175 6.91575C6.23397 7.09269 6.28092 7.24869 6.43258 7.38375L8.02508 8.752L7.54625 10.7962C7.50581 10.9891 7.56394 11.1429 7.72067 11.2577C7.87739 11.3726 8.03447 11.3805 8.19192 11.2816L10 10.1809ZM3.58342 15.4167L1.73742 17.2627C1.46369 17.5364 1.14736 17.5992 0.788417 17.4512C0.429472 17.3031 0.25 17.0341 0.25 16.6441V1.99958C0.25 1.50125 0.417195 1.08525 0.751583 0.751583C1.08525 0.417194 1.50125 0.25 1.99958 0.25H18.0004C18.4988 0.25 18.9148 0.417194 19.2484 0.751583C19.5828 1.08525 19.75 1.50125 19.75 1.99958V13.6671C19.75 14.1654 19.5832 14.5818 19.2495 14.9162C18.9151 15.2498 18.4988 15.4167 18.0004 15.4167H3.58342ZM3.12083 14.3333H18.0004C18.1665 14.3333 18.3193 14.264 18.4587 14.1253C18.5973 13.9859 18.6667 13.8332 18.6667 13.6671V1.99958C18.6667 1.83347 18.5973 1.68072 18.4587 1.54133C18.3193 1.40267 18.1665 1.33333 18.0004 1.33333H1.99958C1.83347 1.33333 1.68072 1.40267 1.54133 1.54133C1.40267 1.68072 1.33333 1.83347 1.33333 1.99958V16.1154L3.12083 14.3333Z" fill="black"/>
</svg>
