<svg width="13" height="23" viewBox="0 0 13 23" fill="none" xmlns="http://www.w3.org/2000/svg">
<path d="M0.458374 15.125H2.87504C2.87504 16.43 4.53046 17.5417 6.50004 17.5417C8.46962 17.5417 10.125 16.43 10.125 15.125C10.125 13.7958 8.86837 13.3125 6.21004 12.6721C3.64837 12.0317 0.458374 11.2342 0.458374 7.875C0.458374 5.71208 2.23462 3.87542 4.68754 3.25917V0.625H8.31254V3.25917C10.7655 3.87542 12.5417 5.71208 12.5417 7.875H10.125C10.125 6.57 8.46962 5.45833 6.50004 5.45833C4.53046 5.45833 2.87504 6.57 2.87504 7.875C2.87504 9.20417 4.13171 9.6875 6.79004 10.3279C9.35171 10.9683 12.5417 11.7658 12.5417 15.125C12.5417 17.2879 10.7655 19.1246 8.31254 19.7408V22.375H4.68754V19.7408C2.23462 19.1246 0.458374 17.2879 0.458374 15.125Z" fill="black"/>
</svg>
